<?xml version="1.0" standalone="no"?><!DOCTYPE svg PUBLIC "-//W3C//DTD SVG 1.1//EN" "http://www.w3.org/Graphics/SVG/1.1/DTD/svg11.dtd"><svg t="1641569948309" class="icon" viewBox="0 0 1024 1024" version="1.1" xmlns="http://www.w3.org/2000/svg" p-id="5781" xmlns:xlink="http://www.w3.org/1999/xlink" width="128" height="128"><defs><style type="text/css"></style></defs><path d="M592.481 79.487H431.519c-21.533 0-39.151 17.618-39.151 39.151v160.961c0 21.533 17.618 39.151 39.151 39.151H592.48c21.533 0 39.151-17.618 39.151-39.151V118.637c0-21.533-17.617-39.15-39.15-39.15zM921.69 79.487H760.728c-21.533 0-39.151 17.618-39.151 39.151v160.961c0 21.533 17.618 39.151 39.151 39.151H921.69c21.533 0 39.151-17.618 39.151-39.151V118.637c-0.001-21.533-17.619-39.15-39.151-39.15zM263.272 79.487H102.31c-21.533 0-39.151 17.618-39.151 39.151v160.961c0 21.533 17.618 39.151 39.151 39.151h160.961c21.533 0 39.151-17.618 39.151-39.151V118.637c0-21.533-17.617-39.15-39.15-39.15zM592.481 392.369H431.519c-21.533 0-39.151 17.618-39.151 39.151v160.961c0 21.533 17.618 39.151 39.151 39.151H592.48c21.533 0 39.151-17.618 39.151-39.151V431.519c0-21.533-17.617-39.15-39.15-39.15zM921.69 392.369H760.728c-21.533 0-39.151 17.618-39.151 39.151v160.961c0 21.533 17.618 39.151 39.151 39.151H921.69c21.533 0 39.151-17.618 39.151-39.151V431.519c-0.001-21.533-17.619-39.15-39.151-39.15zM263.272 392.369H102.31c-21.533 0-39.151 17.618-39.151 39.151v160.961c0 21.533 17.618 39.151 39.151 39.151h160.961c21.533 0 39.151-17.618 39.151-39.151V431.519c0-21.533-17.617-39.15-39.15-39.15zM592.481 705.251H431.519c-21.533 0-39.151 17.618-39.151 39.151v160.961c0 21.533 17.618 39.151 39.151 39.151H592.48c21.533 0 39.151-17.618 39.151-39.151V744.401c0-21.533-17.617-39.15-39.15-39.15zM921.69 705.251H760.728c-21.533 0-39.151 17.618-39.151 39.151v160.961c0 21.533 17.618 39.151 39.151 39.151H921.69c21.533 0 39.151-17.618 39.151-39.151V744.401c-0.001-21.533-17.619-39.15-39.151-39.15zM263.272 705.251H102.31c-21.533 0-39.151 17.618-39.151 39.151v160.961c0 21.533 17.618 39.151 39.151 39.151h160.961c21.533 0 39.151-17.618 39.151-39.151V744.401c0-21.533-17.617-39.15-39.15-39.15z" p-id="5782"></path></svg>