<?xml version="1.0" standalone="no"?><!DOCTYPE svg PUBLIC "-//W3C//DTD SVG 1.1//EN" "http://www.w3.org/Graphics/SVG/1.1/DTD/svg11.dtd"><svg t="1644396871413" class="icon" viewBox="0 0 1024 1024" version="1.1" xmlns="http://www.w3.org/2000/svg" p-id="1328" xmlns:xlink="http://www.w3.org/1999/xlink" width="32" height="32"><defs><style type="text/css"></style></defs><path d="M1024 512c0 282.7776-229.2224 512-512 512S0 794.7776 0 512 229.2224 0 512 0s512 229.2224 512 512z" fill="#FF0808" p-id="1329"></path><path d="M408.576 448.192v-0.448a419.328 419.328 0 0 0-0.1792-6.9248v0.2816l-0.0128-1.088a76.6208 76.6208 0 0 1-0.0384-2.24 122.752 122.752 0 0 1 0.32-7.7184l-0.128 1.7152 0.192-2.688c1.1776-13.9904 4.992-31.3344 10.7904-49.2288 9.5872-27.5456 26.112-57.2672 52.2752-79.1808C506.8672 271.296 557.312 256 607.6544 256c5.7344 0 11.0208 2.8544 13.888 7.488 2.8672 4.6336 2.88 10.3424 0.0256 14.976-1.9712 3.2768-86.2208 81.7536 11.5584 137.344C671.9104 437.8624 729.6 495.68 729.6 564.608c0 54.016-22.6304 104.9856-63.7312 143.5008C624.6784 746.7264 570.0224 768 512 768c-57.792 0-112.4608-21.5808-153.9072-60.7488a206.6304 206.6304 0 0 1-46.5536-64.6912A186.9312 186.9312 0 0 1 294.4 564.608c0-52.3264 26.2912-110.3488 62.8992-119.4112l0.1792 10.9568c0.0896 3.4432 0.256 6.784 0.4864 10.1504l0.576 6.8096c0.3328 3.4432 0.768 6.976 1.28 10.7136l1.152 7.7824 1.408 8.4992 0.8064 4.5952 1.8176 9.9584c1.6384 8.832 4.1984 18.8544 7.68 30.1824a25.6 25.6 0 0 0 48.9472-15.0272 227.8912 227.8912 0 0 1-6.2976-24.512l-2.3424-13.0304-1.2544-7.5136-1.024-6.784a286.528 286.528 0 0 1-0.4352-3.1744l-0.6912-6.016-0.512-5.6832a181.6832 181.6832 0 0 1-0.1536-2.3936l-0.2176-4.9664-0.128-6.6176v-0.9344z" fill="#FFFFFF" p-id="1330"></path></svg>