<?xml version="1.0" standalone="no"?><!DOCTYPE svg PUBLIC "-//W3C//DTD SVG 1.1//EN" "http://www.w3.org/Graphics/SVG/1.1/DTD/svg11.dtd"><svg t="1644396865536" class="icon" viewBox="0 0 1024 1024" version="1.1" xmlns="http://www.w3.org/2000/svg" p-id="1173" xmlns:xlink="http://www.w3.org/1999/xlink" width="32" height="32"><defs><style type="text/css"></style></defs><path d="M1024 512c0 282.7776-229.2224 512-512 512S0 794.7776 0 512 229.2224 0 512 0s512 229.2224 512 512z" fill="#FF6D00" p-id="1174"></path><path d="M691.2 256a76.8 76.8 0 0 1 76.8 76.8v426.3936a25.6 25.6 0 0 1-32.96 24.5248l-219.3664-65.8176a12.8 12.8 0 0 0-7.3472 0l-219.3664 65.8176A25.6 25.6 0 0 1 256 759.1936V332.8a76.8 76.8 0 0 1 76.8-76.8h358.4z m-179.2 115.2a18.816 18.816 0 0 0-16.7424 10.1632l-28.9536 58.9056-66.6112 9.728c-6.7456 0.9472-12.416 5.5296-14.7456 11.8912a16.9856 16.9856 0 0 0 4.3136 17.8816l48.7936 47.8336-11.328 66.2528a17.3568 17.3568 0 0 0 7.5904 17.2928 19.1232 19.1232 0 0 0 19.6096 1.024l58.0608-30.6304 58.0864 30.6432a19.1872 19.1872 0 0 0 19.6096-1.024c5.7344-3.7888 8.704-10.56 7.5648-17.3056l-11.3024-66.2528 48.832-47.8336c4.8-4.6336 6.464-11.6096 4.2752-17.8816h-0.064a18.4192 18.4192 0 0 0-14.7072-11.904l-66.5984-9.728-28.9536-58.8928A18.816 18.816 0 0 0 511.9872 371.2z" fill="#FFFFFF" p-id="1175"></path></svg>