<svg class="icon" viewBox="0 0 1024 1024" xmlns="http://www.w3.org/2000/svg" width="128" height="128"><path d="M466.645 890.453c-234.666 0-423.978-189.61-423.978-423.125 0-233.472 189.312-424.661 423.978-424.661 234.667 0 423.936 189.61 423.936 424.661 0 75.221-20.309 148.907-56.32 213.12-12.501 21.93-42.24 29.781-64.128 17.237-21.888-12.544-29.738-42.282-17.194-64.256 29.696-50.133 43.776-106.538 43.776-166.101-1.536-183.339-148.608-330.667-330.07-330.667-181.504 0-330.112 147.328-330.112 330.667a329.43 329.43 0 0 0 330.112 330.667 340.565 340.565 0 0 0 165.803-43.904c21.93-12.502 51.627-4.694 64.17 17.237 12.502 21.973 4.694 51.755-17.237 64.256a443.563 443.563 0 0 1-212.736 54.87z" fill="#172B4D"/><path d="M466.645 890.453c-234.666 0-423.978-189.61-423.978-423.125 0-75.221 20.352-148.864 56.32-213.12 12.501-21.93 42.24-29.781 64.128-17.237 21.93 12.544 29.738 42.325 17.237 64.256a342.059 342.059 0 0 0-43.819 166.101c0 181.76 147.072 330.667 330.112 330.667a329.43 329.43 0 0 0 330.07-330.667c0-183.339-148.608-330.667-330.07-330.667A340.608 340.608 0 0 0 300.8 180.608c-21.888 12.501-51.627 4.693-64.128-17.28-12.544-21.93-4.693-51.712 17.195-64.256a436.053 436.053 0 0 1 212.778-56.405c233.088 0 422.4 189.61 422.4 424.661a421.973 421.973 0 0 1-422.4 423.125z" fill="#172B4D"/><path d="M934.4 981.333c-12.501 0-23.467-4.693-32.853-14.08l-198.699-199.04c-18.773-18.773-18.773-48.597 0-65.834 18.773-18.774 48.512-18.774 65.707 0l198.698 199.04c18.774 18.773 18.774 48.597 0 65.834-9.386 9.387-21.888 14.08-32.853 14.08z" fill="#172B4D"/></svg>