<?xml version="1.0" encoding="UTF-8"?>
<svg width="24px" height="24px" viewBox="0 0 24 24" version="1.1" xmlns="http://www.w3.org/2000/svg" xmlns:xlink="http://www.w3.org/1999/xlink">
    <title>未命名</title>
    <g id="页面-1" stroke="none" stroke-width="1" fill="none" fill-rule="evenodd">
        <g id="add的副本" transform="translate(0.666667, 0.666667)" fill="#000000" fill-rule="nonzero">
            <path d="M11.3333333,-8.8817842e-16 C17.5926667,-8.8817842e-16 22.6666667,5.074 22.6666667,11.3333333 C22.6666667,17.5926667 17.5926667,22.6666667 11.3333333,22.6666667 C5.074,22.6666667 -8.8817842e-16,17.5926667 -8.8817842e-16,11.3333333 C-8.8817842e-16,5.074 5.074,-8.8817842e-16 11.3333333,-8.8817842e-16 Z M11.3333333,2 C6.17866669,2 2,6.17866666 2,11.3333333 C2,16.488 6.17866666,20.6666667 11.3333333,20.6666667 C16.488,20.6666667 20.6666667,16.488 20.6666667,11.3333333 C20.6666667,6.17866666 16.488,2 11.3333333,2 Z M12.3333333,10.3333333 L17.3333333,10.3333333 L17.3333333,12.3333333 L12.3333333,12.3333333 L10.3333333,12.3326667 L5.33333334,12.3333333 L5.33333334,10.3333333 L10.3333333,10.3326667 L12.3333333,10.3333333 Z" id="形状"></path>
        </g>
    </g>
</svg>