<svg class="icon" viewBox="0 0 1024 1024" xmlns="http://www.w3.org/2000/svg" width="128" height="128"><path fill="currentColor" fill-rule="evenodd" d="M592.481 79.487H431.519c-21.533 0-39.151 17.618-39.151 39.151v160.961c0 21.533 17.618 39.151 39.151 39.151H592.48c21.533 0 39.151-17.618 39.151-39.151V118.637c0-21.533-17.617-39.15-39.15-39.15zm329.209 0H760.728c-21.533 0-39.151 17.618-39.151 39.151v160.961c0 21.533 17.618 39.151 39.151 39.151H921.69c21.533 0 39.151-17.618 39.151-39.151V118.637c-.001-21.533-17.619-39.15-39.151-39.15zm-658.418 0H102.31c-21.533 0-39.151 17.618-39.151 39.151v160.961c0 21.533 17.618 39.151 39.151 39.151h160.961c21.533 0 39.151-17.618 39.151-39.151V118.637c0-21.533-17.617-39.15-39.15-39.15zm329.209 312.882H431.519c-21.533 0-39.151 17.618-39.151 39.151v160.961c0 21.533 17.618 39.151 39.151 39.151H592.48c21.533 0 39.151-17.618 39.151-39.151V431.519c0-21.533-17.617-39.15-39.15-39.15zm329.209 0H760.728c-21.533 0-39.151 17.618-39.151 39.151v160.961c0 21.533 17.618 39.151 39.151 39.151H921.69c21.533 0 39.151-17.618 39.151-39.151V431.519c-.001-21.533-17.619-39.15-39.151-39.15zm-658.418 0H102.31c-21.533 0-39.151 17.618-39.151 39.151v160.961c0 21.533 17.618 39.151 39.151 39.151h160.961c21.533 0 39.151-17.618 39.151-39.151V431.519c0-21.533-17.617-39.15-39.15-39.15zm329.209 312.882H431.519c-21.533 0-39.151 17.618-39.151 39.151v160.961c0 21.533 17.618 39.151 39.151 39.151H592.48c21.533 0 39.151-17.618 39.151-39.151V744.401c0-21.533-17.617-39.15-39.15-39.15zm329.209 0H760.728c-21.533 0-39.151 17.618-39.151 39.151v160.961c0 21.533 17.618 39.151 39.151 39.151H921.69c21.533 0 39.151-17.618 39.151-39.151V744.401c-.001-21.533-17.619-39.15-39.151-39.15zm-658.418 0H102.31c-21.533 0-39.151 17.618-39.151 39.151v160.961c0 21.533 17.618 39.151 39.151 39.151h160.961c21.533 0 39.151-17.618 39.151-39.151V744.401c0-21.533-17.617-39.15-39.15-39.15z"/></svg>
